Ee Rojullo (2012)

Certificate: U - Comedy | Romance - 23 March 2012 (India)

Ratings: 6.7/10 from 30 users


Srinivas is a gullible lover who gets used by girlfriends for his money. Shreya is fed up with guys who wants to take their friendship to next level in order to have a physical relationship. They happen to meet each other when they decided to not to fall in love. Their relationship starts with hatred and lies. The rest of the story is all about how Srinivas and Shreya unite after many twists and turns.


General :


Format : MPEG-4
Format profile : Base Media / Version 2
Codec ID : mp42
File size : 1.60 GiB
Duration : 1h 59mn
Overall bit rate mode : Variable
Overall bit rate : 1 921 Kbps

Video :


Format : AVC
Format/Info : Advanced Video Codec
Format profile : High.1
Bit rate : 1 726 Kbps
Maximum bit rate : 8 349 Kbps
Width : 1 280 pixels
Height : 720 pixels
Display aspect ratio : 16:9
Frame rate mode : Constant
Frame rate : 25.000 fps
Color space : YUV
Chroma subsampling : 4:2:0
Bit depth : 8 bits
Scan type : Progressive
Bits/(Pixel*Frame) : 0.075
Stream size : 1.44 GiB (90%)


Audio : 


Format : AAC
Format/Info : Advanced Audio Codec
Format profile : LC
Codec ID : 40
Duration : 1h 59mn
Bit rate mode : Variable
Bit rate : 192 Kbps
Maximum bit rate : 201 Kbps
Channel(s) : 2 channels
Channel positions : Front: L R
Sampling rate : 44.1 KHz
Compression mode : Lossy
Stream size : 164 MiB (10%)
